HIERARCHY
ROOT Hips
{
	OFFSET 0.000000 0.000000 0.000000
	CHANNELS 6 Xposition Yposition Zposition Zrotation Yrotation Xrotation 
	JOINT LHipJoint
	{
		OFFSET 0.000000 0.000000 0.000000
		CHANNELS 3 Zrotation Yrotation Xrotation
		JOINT LeftUpLeg
		{
			OFFSET 1.363060 -1.794630 0.839290
			CHANNELS 3 Zrotation Yrotation Xrotation
			JOINT LeftLeg
			{
				OFFSET 2.448110 -6.726130 0.000000
				CHANNELS 3 Zrotation Yrotation Xrotation
				JOINT LeftFoot
				{
					OFFSET 2.562200 -7.039590 0.000000
					CHANNELS 3 Zrotation Yrotation Xrotation
					JOINT LeftToeBase
					{
						OFFSET 0.157640 -0.433110 2.322550
						CHANNELS 3 Zrotation Yrotation Xrotation
						End Site
						{
							OFFSET 0.000000 0.000000 0.000000
						}
					}
				}
			}
		}
	}
	JOINT RHipJoint
	{
		OFFSET 0.000000 0.000000 0.000000
		CHANNELS 3 Zrotation Yrotation Xrotation
		JOINT RightUpLeg
		{
			OFFSET -1.305520 -1.794630 0.839290
			CHANNELS 3 Zrotation Yrotation Xrotation
			JOINT RightLeg
			{
				OFFSET -2.542530 -6.985550 0.000000
				CHANNELS 3 Zrotation Yrotation Xrotation
				JOINT RightFoot
				{
					OFFSET -2.568260 -7.056230 0.000000
					CHANNELS 3 Zrotation Yrotation Xrotation
					JOINT RightToeBase
					{
						OFFSET -0.164730 -0.452590 2.363150
						CHANNELS 3 Zrotation Yrotation Xrotation
						End Site
						{
							OFFSET 0.000000 0.000000 0.000000
						}
					}
				}
			}
		}
	}
	JOINT LowerBack
	{
		OFFSET 0.000000 0.000000 0.000000
		CHANNELS 3 Zrotation Yrotation Xrotation
		JOINT Spine
		{
			OFFSET 0.028270 2.035590 -0.193380
			CHANNELS 3 Zrotation Yrotation Xrotation
			JOINT Spine1
			{
				OFFSET 0.056720 2.048850 -0.042750
				CHANNELS 3 Zrotation Yrotation Xrotation
				JOINT Neck
				{
					OFFSET 0.000000 0.000000 0.000000
					CHANNELS 3 Zrotation Yrotation Xrotation
					JOINT Neck1
					{
						OFFSET -0.054170 1.746240 0.172020
						CHANNELS 3 Zrotation Yrotation Xrotation
						JOINT Head
						{
							OFFSET 0.104070 1.761360 -0.123970
							CHANNELS 3 Zrotation Yrotation Xrotation
							End Site
							{
								OFFSET 0.000000 0.000000 0.000000
							}
						}
					}
				}
				JOINT LeftShoulder
				{
					OFFSET 0.000000 0.000000 0.000000
					CHANNELS 3 Zrotation Yrotation Xrotation
					JOINT LeftArm
					{
						OFFSET 3.362410 1.200890 -0.311210
						CHANNELS 3 Zrotation Yrotation Xrotation
						JOINT LeftForeArm
						{
							OFFSET 4.983000 -0.000000 -0.000000
							CHANNELS 3 Zrotation Yrotation Xrotation
							JOINT LeftHand
							{
								OFFSET 3.483560 -0.000000 -0.000000
								CHANNELS 3 Zrotation Yrotation Xrotation
								JOINT LeftFingerBase
								{
									OFFSET 0.000000 0.000000 0.000000
									CHANNELS 3 Zrotation Yrotation Xrotation
									JOINT LeftHandIndex1
									{
										OFFSET 0.715260 -0.000000 -0.000000
										CHANNELS 3 Zrotation Yrotation Xrotation
										End Site
										{
											OFFSET 0.000000 0.000000 0.000000
										}
									}
								}
								JOINT LThumb
								{
									OFFSET 0.000000 0.000000 0.000000
									CHANNELS 3 Zrotation Yrotation Xrotation
									End Site
									{
										OFFSET 0.000000 0.000000 0.000000
									}
								}
							}
						}
					}
				}
				JOINT RightShoulder
				{
					OFFSET 0.000000 0.000000 0.000000
					CHANNELS 3 Zrotation Yrotation Xrotation
					JOINT RightArm
					{
						OFFSET -3.136600 1.374050 -0.404650
						CHANNELS 3 Zrotation Yrotation Xrotation
						JOINT RightForeArm
						{
							OFFSET -5.241900 -0.000000 -0.000000
							CHANNELS 3 Zrotation Yrotation Xrotation
							JOINT RightHand
							{
								OFFSET -3.444170 -0.000000 -0.000000
								CHANNELS 3 Zrotation Yrotation Xrotation
								JOINT RightFingerBase
								{
									OFFSET 0.000000 0.000000 0.000000
									CHANNELS 3 Zrotation Yrotation Xrotation
									JOINT RightHandIndex1
									{
										OFFSET -0.622530 -0.000000 -0.000000
										CHANNELS 3 Zrotation Yrotation Xrotation
										End Site
										{
											OFFSET 0.000000 0.000000 0.000000
										}
									}
								}
								JOINT RThumb
								{
									OFFSET 0.000000 0.000000 0.000000
									CHANNELS 3 Zrotation Yrotation Xrotation
									End Site
									{
										OFFSET 0.000000 0.000000 0.000000
									}
								}
							}
						}
					}
				}
			}
		}
	}
}
MOTION
Frames: 8
Frame Time: 0.008333
3.707033 20.484767 -1.147989 -94.902713 83.629450 -86.046129 -2.919263 5.795073 7.428960 -6.549657 -5.018440 1.581975 -3.771010 -0.091472 1.630689 5.101784 6.248668 47.301027 1.788300 -8.410400 -23.967700 -2.230304 3.857109 -6.070185 -1.074837 16.279217 -44.034462 -26.159010 -21.839519 107.824066 -2.091590 9.816921 -9.416407 -0.168200 2.641800 -7.283200 2.360962 -0.195168 25.250824 3.824063 1.537868 2.015542 5.790977 1.099857 -8.414750 3.899593 1.553457 -7.681372 -2.863709 1.170907 -9.626072 -3.297300 0.157700 -2.596200 -1.802869 -6.031035 2.667616 -12.715830 -5.500566 -5.780716 65.748794 -52.690278 -54.483445 1.219807 -4.231420 -7.384163 14.683185 -0.852684 0.914300 -7.125000 0.000000 0.000000 -10.217300 33.603500 2.894300 4.158708 5.587757 3.455175 23.993721 -15.656367 27.166568 -25.406198 33.989167 -10.926304 1.185829 1.376709 -2.617518 -20.189659 -18.880643 7.693300 7.125000 0.000000 0.000000 7.097000 -51.326900 -1.110800 
3.946296 20.649132 -1.136088 -99.085706 83.626220 -90.469737 -2.741691 5.922210 7.435666 -6.695171 -4.547225 2.029066 -3.727514 0.040886 1.684137 5.179306 7.728643 48.749548 1.784800 -8.402600 -23.943700 -2.139870 3.813797 -6.016446 -1.736575 17.440040 -44.726702 -25.263803 -22.399038 104.714086 -1.989979 8.966045 -8.779881 -0.154100 2.529200 -6.970500 2.922085 -0.407145 25.208214 3.934618 1.506655 2.049699 5.689222 1.062143 -8.350956 3.734479 1.472267 -7.453314 -2.908391 1.059252 -9.225555 -3.301300 0.113600 -2.521700 -1.832700 -6.064555 2.681147 -12.770756 -6.137845 -6.481398 65.420062 -52.501179 -54.047063 1.214032 -4.204991 -7.385017 14.760921 -0.908469 0.898800 -7.125000 0.000000 0.000000 -10.142000 33.522800 2.892600 4.215257 5.597588 3.478584 23.502100 -15.602834 25.266198 -24.050694 32.808663 -10.156370 1.294639 1.340594 -1.718365 -21.285660 -18.905633 8.154400 7.125000 0.000000 0.000000 5.917600 -51.522500 -0.953400 
4.192843 20.851869 -1.121621 -105.345052 83.605489 -96.891393 -2.525239 5.945210 7.387380 -6.903662 -4.210432 2.572266 -3.699017 0.129679 1.745654 5.349573 8.751092 50.142782 1.699300 -8.209300 -23.351800 -1.955324 3.654837 -5.859476 -2.269134 18.436730 -44.985077 -24.075583 -22.933737 100.855439 -1.883782 8.265187 -7.837656 -0.157100 2.553600 -7.038400 3.445723 -0.656808 25.118860 3.996003 1.424376 2.080666 5.546224 0.990462 -8.299493 3.586365 1.370707 -7.154145 -2.895214 0.916517 -8.935517 -3.290300 0.050600 -2.497000 -1.863692 -6.131039 2.680847 -13.011529 -6.882467 -6.931521 65.364526 -52.405702 -53.795440 1.214128 -4.166044 -7.358270 15.031299 -0.871109 0.917000 -7.125000 0.000000 0.000000 -9.929900 33.535300 2.827400 4.255719 5.608126 3.491495 23.340302 -15.575200 23.138864 -22.794994 31.671890 -9.449410 1.394696 1.272925 -0.647683 -22.333197 -18.804078 8.537000 7.125000 0.000000 0.000000 4.749800 -51.551600 -0.767900 
4.433748 21.045988 -1.099152 -114.590834 83.483864 -106.250184 -2.291201 5.818665 7.277342 -7.138548 -4.013293 3.259261 -3.681466 0.177573 1.819975 5.600925 9.437876 51.591234 1.522800 -7.791900 -22.083700 -1.753061 3.329496 -5.615977 -2.815357 19.197939 -45.054645 -22.701670 -23.417174 96.579679 -1.788101 7.814021 -6.571434 -0.176000 2.702400 -7.451200 3.915601 -0.982022 24.991163 4.024456 1.253987 2.113311 5.396375 0.852257 -8.246132 3.462264 1.254142 -6.828822 -2.871526 0.751720 -8.728778 -3.279300 -0.025100 -2.506000 -1.897257 -6.236148 2.667931 -13.449008 -7.688105 -7.094571 65.573369 -52.404284 -53.732902 1.218019 -4.114878 -7.316533 15.461096 -0.768988 0.960200 -7.125000 0.000000 0.000000 -9.600700 33.610500 2.713600 4.276601 5.602440 3.490971 23.474339 -15.588573 20.859455 -21.676521 30.621189 -8.826214 1.477653 1.182231 0.520146 -23.264120 -18.606507 8.818700 7.125000 0.000000 0.000000 3.685700 -51.437700 -0.585100 
4.669419 21.228821 -1.068577 -127.849965 83.140077 -119.586843 -2.189777 5.448072 7.082374 -7.356468 -3.944853 4.108186 -3.667608 0.202966 1.907671 5.913861 10.057760 53.207122 1.274200 -7.154100 -20.172600 -1.675544 2.710350 -5.260197 -3.397449 19.694098 -44.947233 -21.139926 -23.828335 91.905039 -1.706315 7.573457 -4.915238 -0.210900 2.956700 -8.158200 4.229257 -1.411853 24.821133 4.045635 0.937681 2.149466 5.280261 0.591060 -8.176417 3.388515 1.122012 -6.531118 -2.915027 0.566506 -8.572097 -3.296000 -0.110100 -2.531300 -1.935470 -6.395989 2.647071 -14.080779 -8.513689 -6.938568 66.015986 -52.486389 -53.841723 1.224752 -4.051454 -7.287489 15.987035 -0.618407 1.021500 -7.125000 0.000000 0.000000 -9.200600 33.729300 2.571200 4.273724 5.552114 3.470833 23.856473 -15.666848 18.531782 -20.725641 29.697178 -8.301919 1.538907 1.081693 1.668724 -24.041235 -18.369674 9.007200 7.125000 0.000000 0.000000 2.787000 -51.242800 -0.428900 
4.900474 21.398110 -1.030615 -144.983857 82.707296 -137.055833 -3.016134 3.845173 6.335429 -7.701985 -4.252596 1.713690 -2.952910 3.092989 9.927850 5.371243 8.703421 52.058720 0.989600 -6.331600 -17.749500 -2.077214 1.767162 -4.659814 -3.997465 20.060101 -44.487618 -19.411848 -24.037636 86.920629 -1.652377 7.465378 -2.968968 -0.270100 3.343200 -9.235800 3.908054 -1.794617 24.919591 4.051854 0.463096 2.200290 5.227760 0.193486 -8.102830 3.355624 0.971337 -6.316098 -3.044089 0.361863 -8.405841 -3.342600 -0.202200 -2.545100 -1.975482 -6.608257 2.621265 -14.886706 -9.321821 -6.429247 66.627152 -52.629027 -54.069210 1.233630 -3.975878 -7.285543 16.508725 -0.426833 1.092800 -7.125000 0.000000 0.000000 -8.808300 33.878600 2.427100 4.248464 5.446093 3.428395 24.432556 -15.835524 16.304688 -19.953924 28.926083 -7.879462 1.578144 0.984622 2.679082 -24.645053 -18.148450 9.122800 7.125000 0.000000 0.000000 2.088300 -51.031600 -0.310400 
5.128040 21.554062 -0.985984 -162.932388 82.542762 -155.354109 -4.012965 2.473051 5.771619 -8.483304 -2.943539 -0.800487 -1.989246 5.444027 17.304865 5.373457 5.537530 51.411204 0.715300 -5.404900 -15.067000 -3.035496 1.118052 -4.295609 -4.560040 20.498458 -43.504754 -17.538410 -23.905255 81.689913 -1.631148 7.414688 -0.769107 -0.359900 3.854100 -10.666500 2.606839 -1.760232 25.104395 3.997424 0.053757 2.297290 5.263623 -0.127013 -7.995864 3.358730 0.809345 -6.193253 -3.244532 0.144501 -8.196331 -3.416300 -0.299100 -2.529700 -2.005258 -6.769973 2.581611 -15.846467 -10.069672 -5.534894 67.311609 -52.804967 -54.333362 1.242357 -3.888739 -7.306162 16.927586 -0.220116 1.159200 -7.125000 0.000000 0.000000 -8.499200 34.026100 2.309500 4.217491 5.377063 3.393139 25.135509 -16.103372 14.327386 -19.365304 28.321203 -7.556347 1.598161 0.905316 3.428266 -25.042063 -18.014033 9.193000 7.125000 0.000000 0.000000 1.635900 -50.888200 -0.237400 
5.353452 21.698112 -0.935608 -177.462641 82.490793 -170.241362 -4.596404 1.847878 5.413740 -9.481843 -1.841643 -2.963509 -1.012221 7.517841 23.761268 5.400324 2.830185 50.684647 0.487300 -4.476100 -12.420100 -3.745452 1.115099 -4.198409 -5.061367 20.981024 -42.045422 -15.571478 -23.435280 76.281850 -1.646514 7.371968 1.645132 -0.475800 4.423700 -12.271700 1.054548 -1.399142 25.347762 3.877704 -0.126206 2.459669 5.380284 -0.207994 -7.847185 3.384873 0.639683 -6.178642 -3.488077 -0.082993 -7.909051 -3.510600 -0.401200 -2.468100 -2.019903 -6.798510 2.524921 -16.921481 -10.724249 -4.241348 67.948521 -52.974021 -54.522174 1.248769 -3.791585 -7.324102 17.190000 -0.015292 1.210700 -7.125000 0.000000 0.000000 -8.315200 34.151500 2.233100 4.190220 5.418722 3.387986 25.897265 -16.466751 12.756086 -18.953462 27.885226 -7.324867 1.602928 0.853606 3.801222 -25.209804 -17.999393 9.231800 7.125000 0.000000 0.000000 1.453200 -50.852300 -0.209600 
